<svg xmlns="http://www.w3.org/2000/svg" data-name="Layer 1" viewBox="0 0 100 100" x="0px" y="0px"><style>:root{background-color:#1976D2;}rect,path{fill:#90CAF9;}@media(prefers-color-scheme:dark){:root{background-color:#90CAF9;}rect,path{fill:#1976D2;}}</style><title>Artboard 6</title><g><rect x="67" y="59.34" width="6" height="11.31" transform="translate(-25.46 68.54) rotate(-45)"/><rect x="64.34" y="32" width="11.31" height="6" transform="translate(-4.25 59.75) rotate(-45)"/><rect x="70" y="47" width="12" height="6"/><path d="M35,26.27v9.35L54.57,48.35l-1.63,6.52A6.77,6.77,0,0,1,46.37,60H36.76L20.88,75.88l4.24,4.24L39.24,66h7.12a12.76,12.76,0,0,0,12.39-9.68l2.67-10.67L41,32.37V20H38a22.16,22.16,0,0,0-15.78,6.54L18,30.76v8.48l8.46-8.46A16.2,16.2,0,0,1,35,26.27Z"/></g></svg>
