<?xml version="1.0" standalone="no"?>
<!DOCTYPE svg PUBLIC "-//W3C//DTD SVG 20010904//EN"
 "http://www.w3.org/TR/2001/REC-SVG-20010904/DTD/svg10.dtd">
<svg version="1.0" xmlns="http://www.w3.org/2000/svg"
 width="700.000000pt" height="700.000000pt" viewBox="0 0 700.000000 700.000000"
 preserveAspectRatio="xMidYMid meet">
<metadata>
Created by potrace 1.14, written by Peter Selinger 2001-2017
</metadata>
<g transform="translate(0.000000,700.000000) scale(0.100000,-0.100000)"
fill="#000000" stroke="none">
<path d="M2387 5579 c-219 -38 -453 -136 -637 -267 -57 -41 -172 -143 -292
-261 l-198 -194 0 -305 0 -306 358 355 c303 300 369 361 438 402 104 61 222
112 315 136 l74 19 3 -328 2 -328 680 -442 c448 -291 680 -448 680 -459 -1
-40 -122 -490 -145 -537 -51 -105 -150 -191 -271 -236 -56 -21 -78 -22 -445
-26 l-386 -4 -554 -554 -554 -554 153 -152 152 -153 498 497 497 497 330 4
c305 3 335 5 403 25 197 60 385 194 494 355 85 125 111 200 218 626 55 222 99
408 98 413 -2 6 -323 218 -713 472 l-710 462 -3 432 -2 432 -188 -1 c-136 0
-216 -6 -295 -20z"/>
<path d="M4745 4700 l-280 -280 153 -152 152 -153 282 282 283 283 -150 150
c-82 82 -152 150 -155 150 -3 0 -131 -126 -285 -280z"/>
<path d="M4900 3500 l0 -210 420 0 420 0 0 210 0 210 -420 0 -420 0 0 -210z"/>
<path d="M4615 2730 l-150 -150 283 -283 282 -282 152 153 153 152 -280 280
c-154 154 -282 280 -285 280 -3 0 -73 -68 -155 -150z"/>
</g>
</svg>
